<svg xmlns="http://www.w3.org/2000/svg" viewBox="0 0 32 40" x="0px" y="0px"><title>hourglass</title><g data-name="Layer 7"><path d="M23,10.23V8a3,3,0,0,0-3-3H12A3,3,0,0,0,9,8v2.23a7,7,0,0,0,2.46,5.33L12,16l-.52.44A7,7,0,0,0,9,21.77V24a3,3,0,0,0,3,3h8a3,3,0,0,0,3-3V21.77a7,7,0,0,0-2.46-5.33L20,16l.52-.44A7,7,0,0,0,23,10.23ZM21,24a1,1,0,0,1-1,1H12a1,1,0,0,1-1-1V21.77a5.06,5.06,0,0,1,.14-1.17,8,8,0,0,1,4.37,1.27A9.88,9.88,0,0,0,21,23.4Zm-3.17-7.24L19.24,18A5,5,0,0,1,21,21.4a7.87,7.87,0,0,1-4.49-1.27,9.83,9.83,0,0,0-4.39-1.48,4.78,4.78,0,0,1,.66-.69l1.41-1.2a1,1,0,0,0,0-1.52L12.76,14A5,5,0,0,1,11,10.23V8a1,1,0,0,1,1-1h8a1,1,0,0,1,1,1v2.23A5,5,0,0,1,19.24,14l-1.41,1.2a1,1,0,0,0,0,1.52Z"/></g><text x="0" y="47" fill="#000000" font-size="5px" font-weight="bold" font-family="'Helvetica Neue', Helvetica, Arial-Unicode, Arial, Sans-serif">Created by DailyYouth</text><text x="0" y="52" fill="#000000" font-size="5px" font-weight="bold" font-family="'Helvetica Neue', Helvetica, Arial-Unicode, Arial, Sans-serif">from the Noun Project</text></svg>