<svg xmlns="http://www.w3.org/2000/svg" xmlns:xlink="http://www.w3.org/1999/xlink" version="1.1" x="0px" y="0px" viewBox="0 0 100 125" style="enable-background:new 0 0 100 100;" xml:space="preserve"><path d="M82.3,88.9h-5.8V75.8c1.1-5-6.1-13.7-21.4-25.9C70.5,37.7,77.6,29,76.6,24.1V10.7h5.8c1.9,0,3.4-1.5,3.4-3.4S84.2,4,82.3,4  H17.7c-1.9,0-3.4,1.5-3.4,3.4s1.5,3.4,3.4,3.4h5.8v13.3c-1.1,5,6.1,13.7,21.4,25.9C29.5,62.1,22.4,70.8,23.4,75.8v13.1h-5.8  c-1.9,0-3.4,1.5-3.4,3.4s1.5,3.4,3.4,3.4h64.7c1.9,0,3.4-1.5,3.4-3.4S84.2,88.9,82.3,88.9z M30.2,10.7h39.7v14.6  c-0.2,0.7-1.2,2.7-4.6,6.5H34.8c-3.5-3.8-4.4-5.8-4.6-6.5V10.7z M30.2,74.5c0.4-1.3,3.1-6.9,19.8-20.1  c16.7,13.2,19.4,18.8,19.8,20.1v14.4h-1.7L50,71.1L31.9,88.9h-1.7V74.5z"/><text x="0" y="115" fill="#000000" font-size="5px" font-weight="bold" font-family="'Helvetica Neue', Helvetica, Arial-Unicode, Arial, Sans-serif">Created by Morten Halvorsen</text><text x="0" y="120" fill="#000000" font-size="5px" font-weight="bold" font-family="'Helvetica Neue', Helvetica, Arial-Unicode, Arial, Sans-serif">from the Noun Project</text></svg>